<?xml version="1.0" encoding="utf-8"?>
<!-- Generator: Adobe Illustrator 18.1.1, SVG Export Plug-In . SVG Version: 6.00 Build 0)  -->
<!DOCTYPE svg PUBLIC "-//W3C//DTD SVG 1.1//EN" "http://www.w3.org/Graphics/SVG/1.1/DTD/svg11.dtd">
<svg version="1.1" id="Layer_1" xmlns="http://www.w3.org/2000/svg" xmlns:xlink="http://www.w3.org/1999/xlink" x="0px" y="0px"
	 viewBox="0 0 180.2 172.8" enable-background="new 0 0 180.2 172.8" xml:space="preserve">
<rect x="48.9" y="22.6" fill="#92278F" stroke="#000000" stroke-miterlimit="10" width="14.1" height="14.1"/>
<rect x="48.9" y="36.7" fill="#FFFFFF" stroke="#000000" stroke-miterlimit="10" width="14.1" height="14.1"/>
<rect x="63" y="22.6" fill="#FFFFFF" stroke="#000000" stroke-miterlimit="10" width="14.1" height="14.1"/>
<rect x="63" y="36.7" fill="#FFFFFF" stroke="#000000" stroke-miterlimit="10" width="14.1" height="14.1"/>
<rect x="77.1" y="22.6" fill="#FFFFFF" stroke="#000000" stroke-miterlimit="10" width="14.1" height="14.1"/>
<rect x="77.1" y="36.7" fill="#FFFFFF" stroke="#000000" stroke-miterlimit="10" width="14.1" height="14.1"/>
<rect x="91.2" y="22.6" fill="#FFFFFF" stroke="#000000" stroke-miterlimit="10" width="14.1" height="14.1"/>
<rect x="91.2" y="36.7" fill="#FFFFFF" stroke="#000000" stroke-miterlimit="10" width="14.1" height="14.1"/>
<rect x="48.9" y="50.9" fill="#FFFFFF" stroke="#000000" stroke-miterlimit="10" width="14.1" height="14.1"/>
<rect x="48.9" y="65" fill="#FFFFFF" stroke="#000000" stroke-miterlimit="10" width="14.1" height="14.1"/>
<rect x="63" y="50.9" fill="#FFFFFF" stroke="#000000" stroke-miterlimit="10" width="14.1" height="14.1"/>
<rect x="63" y="65" fill="#FFFFFF" stroke="#000000" stroke-miterlimit="10" width="14.1" height="14.1"/>
<rect x="77.1" y="50.9" fill="#FFFFFF" stroke="#000000" stroke-miterlimit="10" width="14.1" height="14.1"/>
<rect x="77.1" y="65" fill="#FFFFFF" stroke="#000000" stroke-miterlimit="10" width="14.1" height="14.1"/>
<rect x="91.2" y="50.9" fill="#FFFFFF" stroke="#000000" stroke-miterlimit="10" width="14.1" height="14.1"/>
<rect x="91.2" y="65" fill="#FFFFFF" stroke="#000000" stroke-miterlimit="10" width="14.1" height="14.1"/>
<rect x="119.2" y="22.6" fill="#92278F" stroke="#000000" stroke-miterlimit="10" width="14.1" height="14.1"/>
<rect x="119.2" y="36.7" fill="#92278F" stroke="#000000" stroke-miterlimit="10" width="14.1" height="14.1"/>
<rect x="133.3" y="22.6" fill="#92278F" stroke="#000000" stroke-miterlimit="10" width="14.1" height="14.1"/>
<rect x="133.3" y="36.7" fill="#92278F" stroke="#000000" stroke-miterlimit="10" width="14.1" height="14.1"/>
<rect x="147.4" y="22.6" fill="#FFFFFF" stroke="#000000" stroke-miterlimit="10" width="14.1" height="14.1"/>
<rect x="147.4" y="36.7" fill="#FFFFFF" stroke="#000000" stroke-miterlimit="10" width="14.1" height="14.1"/>
<rect x="161.6" y="22.6" fill="#FFFFFF" stroke="#000000" stroke-miterlimit="10" width="14.1" height="14.1"/>
<rect x="161.6" y="36.7" fill="#FFFFFF" stroke="#000000" stroke-miterlimit="10" width="14.1" height="14.1"/>
<rect x="119.2" y="50.9" fill="#FFFFFF" stroke="#000000" stroke-miterlimit="10" width="14.1" height="14.1"/>
<rect x="119.2" y="65" fill="#FFFFFF" stroke="#000000" stroke-miterlimit="10" width="14.1" height="14.1"/>
<rect x="133.3" y="50.9" fill="#FFFFFF" stroke="#000000" stroke-miterlimit="10" width="14.1" height="14.1"/>
<rect x="133.3" y="65" fill="#FFFFFF" stroke="#000000" stroke-miterlimit="10" width="14.1" height="14.1"/>
<rect x="147.4" y="50.9" fill="#FFFFFF" stroke="#000000" stroke-miterlimit="10" width="14.1" height="14.1"/>
<rect x="147.4" y="65" fill="#FFFFFF" stroke="#000000" stroke-miterlimit="10" width="14.1" height="14.1"/>
<rect x="161.6" y="50.9" fill="#FFFFFF" stroke="#000000" stroke-miterlimit="10" width="14.1" height="14.1"/>
<rect x="161.6" y="65" fill="#FFFFFF" stroke="#000000" stroke-miterlimit="10" width="14.1" height="14.1"/>
<rect x="48.9" y="101.9" fill="#92278F" stroke="#000000" stroke-miterlimit="10" width="14.1" height="14.1"/>
<rect x="48.9" y="116" fill="#92278F" stroke="#000000" stroke-miterlimit="10" width="14.1" height="14.1"/>
<rect x="63" y="101.9" fill="#92278F" stroke="#000000" stroke-miterlimit="10" width="14.1" height="14.1"/>
<rect x="63" y="116" fill="#92278F" stroke="#000000" stroke-miterlimit="10" width="14.1" height="14.1"/>
<rect x="77.1" y="101.9" fill="#92278F" stroke="#000000" stroke-miterlimit="10" width="14.1" height="14.1"/>
<rect x="77.1" y="116" fill="#92278F" stroke="#000000" stroke-miterlimit="10" width="14.1" height="14.1"/>
<rect x="91.2" y="101.9" fill="#FFFFFF" stroke="#000000" stroke-miterlimit="10" width="14.1" height="14.1"/>
<rect x="91.2" y="116" fill="#FFFFFF" stroke="#000000" stroke-miterlimit="10" width="14.1" height="14.1"/>
<rect x="48.9" y="130.2" fill="#92278F" stroke="#000000" stroke-miterlimit="10" width="14.1" height="14.1"/>
<rect x="48.9" y="144.3" fill="#FFFFFF" stroke="#000000" stroke-miterlimit="10" width="14.1" height="14.1"/>
<rect x="63" y="130.2" fill="#92278F" stroke="#000000" stroke-miterlimit="10" width="14.1" height="14.1"/>
<rect x="63" y="144.3" fill="#FFFFFF" stroke="#000000" stroke-miterlimit="10" width="14.1" height="14.1"/>
<rect x="77.1" y="130.2" fill="#92278F" stroke="#000000" stroke-miterlimit="10" width="14.1" height="14.1"/>
<rect x="77.1" y="144.3" fill="#FFFFFF" stroke="#000000" stroke-miterlimit="10" width="14.1" height="14.1"/>
<rect x="91.2" y="130.2" fill="#FFFFFF" stroke="#000000" stroke-miterlimit="10" width="14.1" height="14.1"/>
<rect x="91.2" y="144.3" fill="#FFFFFF" stroke="#000000" stroke-miterlimit="10" width="14.1" height="14.1"/>
<rect x="119.2" y="101.9" fill="#92278F" stroke="#000000" stroke-miterlimit="10" width="14.1" height="14.1"/>
<rect x="119.2" y="116" fill="#92278F" stroke="#000000" stroke-miterlimit="10" width="14.1" height="14.1"/>
<rect x="133.3" y="101.9" fill="#92278F" stroke="#000000" stroke-miterlimit="10" width="14.1" height="14.1"/>
<rect x="133.3" y="116" fill="#92278F" stroke="#000000" stroke-miterlimit="10" width="14.1" height="14.1"/>
<rect x="147.4" y="101.9" fill="#92278F" stroke="#000000" stroke-miterlimit="10" width="14.1" height="14.1"/>
<rect x="147.4" y="116" fill="#92278F" stroke="#000000" stroke-miterlimit="10" width="14.1" height="14.1"/>
<rect x="161.6" y="101.9" fill="#92278F" stroke="#000000" stroke-miterlimit="10" width="14.1" height="14.1"/>
<rect x="161.6" y="116" fill="#92278F" stroke="#000000" stroke-miterlimit="10" width="14.1" height="14.1"/>
<rect x="119.2" y="130.2" fill="#92278F" stroke="#000000" stroke-miterlimit="10" width="14.1" height="14.1"/>
<rect x="119.2" y="144.3" fill="#92278F" stroke="#000000" stroke-miterlimit="10" width="14.1" height="14.1"/>
<rect x="133.3" y="130.2" fill="#92278F" stroke="#000000" stroke-miterlimit="10" width="14.1" height="14.1"/>
<rect x="133.3" y="144.3" fill="#92278F" stroke="#000000" stroke-miterlimit="10" width="14.1" height="14.1"/>
<rect x="147.4" y="130.2" fill="#92278F" stroke="#000000" stroke-miterlimit="10" width="14.1" height="14.1"/>
<rect x="147.4" y="144.3" fill="#92278F" stroke="#000000" stroke-miterlimit="10" width="14.1" height="14.1"/>
<rect x="161.6" y="130.2" fill="#92278F" stroke="#000000" stroke-miterlimit="10" width="14.1" height="14.1"/>
<rect x="161.6" y="144.3" fill="#92278F" stroke="#000000" stroke-miterlimit="10" width="14.1" height="14.1"/>
<text transform="matrix(1 0 0 1 51.8248 12.6518)" font-family="'MyriadPro-Regular'" font-size="12">Device Pixel Ratios</text>
<rect x="12.6" y="66.7" fill="#FFFFFF" stroke="#000000" stroke-miterlimit="10" width="14.1" height="14.1"/>
<rect x="12.6" y="94.9" fill="#92278F" stroke="#000000" stroke-miterlimit="10" width="14.1" height="14.1"/>
<text transform="matrix(1 0 0 1 2.19 87.8245)" font-family="'MyriadPro-Regular'" font-size="6">1 Hardware Pixel</text>
<text transform="matrix(1 0 0 1 12.5598 116.0486)" font-family="'MyriadPro-Regular'" font-size="6">1 DIP</text>
<text transform="matrix(1 0 0 1 70.073 86.4085)" font-family="'MyriadPro-Regular'" font-size="6">Ratio: 1</text>
<text transform="matrix(1 0 0 1 140.3897 86.1313)" font-family="'MyriadPro-Regular'" font-size="6">Ratio: 2</text>
<text transform="matrix(1 0 0 1 70.073 165.3091)" font-family="'MyriadPro-Regular'" font-size="6">Ratio: 3</text>
<text transform="matrix(1 0 0 1 140.3893 165.3091)" font-family="'MyriadPro-Regular'" font-size="6">Ratio: 4</text>
</svg>
