<?xml version="1.0" encoding="utf-8"?>
<!-- Generator: Adobe Illustrator 18.1.1, SVG Export Plug-In . SVG Version: 6.00 Build 0)  -->
<!DOCTYPE svg PUBLIC "-//W3C//DTD SVG 1.1//EN" "http://www.w3.org/Graphics/SVG/1.1/DTD/svg11.dtd">
<svg version="1.1" id="Layer_1" xmlns="http://www.w3.org/2000/svg" xmlns:xlink="http://www.w3.org/1999/xlink" x="0px" y="0px"
	 viewBox="0 0 250 144" enable-background="new 0 0 250 144" xml:space="preserve">
<symbol  id="Illuminated_Blue_Rounded_Org" viewBox="-20 -10.5 39.9 21">
	<g>
		
			<linearGradient id="SVGID_1_" gradientUnits="userSpaceOnUse" x1="0.1098" y1="-9.4844" x2="0.1098" y2="9.4844" gradientTransform="matrix(1 0 0 1 -0.1096 0)">
			<stop  offset="0" style="stop-color:#2B2976"/>
			<stop  offset="0.618" style="stop-color:#1E1855"/>
			<stop  offset="0.6292" style="stop-color:#272368"/>
			<stop  offset="0.9831" style="stop-color:#21235F"/>
		</linearGradient>
		<path fill="url(#SVGID_1_)" d="M19,5.9c0,2-1.6,3.6-3.6,3.6h-30.7c-2,0-3.6-1.6-3.6-3.6V-5.9c0-2,1.6-3.6,3.6-3.6h30.7
			c2,0,3.6,1.6,3.6,3.6V5.9z"/>
		
			<linearGradient id="SVGID_2_" gradientUnits="userSpaceOnUse" x1="0.1098" y1="-9.4844" x2="0.1098" y2="9.4844" gradientTransform="matrix(1 0 0 1 -0.1096 0)">
			<stop  offset="0" style="stop-color:#181049;stop-opacity:0.22"/>
			<stop  offset="0.5" style="stop-color:#120F26"/>
			<stop  offset="0.5253" style="stop-color:#1B2135;stop-opacity:0.956"/>
			<stop  offset="0.5789" style="stop-color:#293D53;stop-opacity:0.8627"/>
			<stop  offset="0.6355" style="stop-color:#345770;stop-opacity:0.7642"/>
			<stop  offset="0.6946" style="stop-color:#3A6E8B;stop-opacity:0.6614"/>
			<stop  offset="0.757" style="stop-color:#3D81A2;stop-opacity:0.5529"/>
			<stop  offset="0.8241" style="stop-color:#3E8FB4;stop-opacity:0.4361"/>
			<stop  offset="0.8994" style="stop-color:#3E99C0;stop-opacity:0.305"/>
			<stop  offset="1" style="stop-color:#3E9DC5;stop-opacity:0.13"/>
		</linearGradient>
		<path fill="url(#SVGID_2_)" d="M19,5.9c0,2-1.6,3.6-3.6,3.6h-30.7c-2,0-3.6-1.6-3.6-3.6V-5.9c0-2,1.6-3.6,3.6-3.6h30.7
			c2,0,3.6,1.6,3.6,3.6V5.9z"/>
		
			<radialGradient id="SVGID_3_" cx="0.1098" cy="-2.327062e-005" r="14.9963" gradientTransform="matrix(1 0 0 0.5 -0.1096 -1.163531e-005)" gradientUnits="userSpaceOnUse">
			<stop  offset="0" style="stop-color:#3E9DC5;stop-opacity:0"/>
			<stop  offset="0.1102" style="stop-color:#3D95C0;stop-opacity:7.716159e-002"/>
			<stop  offset="0.3121" style="stop-color:#3981B5;stop-opacity:0.2184"/>
			<stop  offset="0.5829" style="stop-color:#3364A4;stop-opacity:0.408"/>
			<stop  offset="0.9091" style="stop-color:#2F3D8F;stop-opacity:0.6364"/>
			<stop  offset="1" style="stop-color:#2F308A;stop-opacity:0.7"/>
		</radialGradient>
		<path opacity="0.51" fill="url(#SVGID_3_)" d="M19,5.9c0,2-1.6,3.6-3.6,3.6h-30.7c-2,0-3.6-1.6-3.6-3.6V-5.9c0-2,1.6-3.6,3.6-3.6
			h30.7c2,0,3.6,1.6,3.6,3.6V5.9z"/>
		
			<linearGradient id="SVGID_4_" gradientUnits="userSpaceOnUse" x1="0.1098" y1="9.4844" x2="0.1098" y2="-9.4844" gradientTransform="matrix(1 0 0 1 -0.1096 0)">
			<stop  offset="0" style="stop-color:#FFFFFF;stop-opacity:0.77"/>
			<stop  offset="0.45" style="stop-color:#FFFFFF;stop-opacity:0"/>
			<stop  offset="0.4722" style="stop-color:#D2D2D4;stop-opacity:6.462955e-003"/>
			<stop  offset="0.4963" style="stop-color:#AAA9AD;stop-opacity:1.347729e-002"/>
			<stop  offset="0.5234" style="stop-color:#858389;stop-opacity:2.136300e-002"/>
			<stop  offset="0.553" style="stop-color:#65636A;stop-opacity:2.994972e-002"/>
			<stop  offset="0.5855" style="stop-color:#4A4750;stop-opacity:3.942926e-002"/>
			<stop  offset="0.6224" style="stop-color:#34313C;stop-opacity:5.014593e-002"/>
			<stop  offset="0.6654" style="stop-color:#23202B;stop-opacity:6.265124e-002"/>
			<stop  offset="0.7185" style="stop-color:#181520;stop-opacity:7.810858e-002"/>
			<stop  offset="0.7931" style="stop-color:#110E1A;stop-opacity:9.979719e-002"/>
			<stop  offset="1" style="stop-color:#0F0C18;stop-opacity:0.16"/>
		</linearGradient>
		<path opacity="0.7" fill="url(#SVGID_4_)" d="M19,5.9c0,2-1.6,3.6-3.6,3.6h-30.7c-2,0-3.6-1.6-3.6-3.6V-5.9c0-2,1.6-3.6,3.6-3.6
			h30.7c2,0,3.6,1.6,3.6,3.6V5.9z"/>
		<g opacity="0.49">
			<path fill="#FFFFFF" d="M-15.4-7c-1.6,0.4-2,0.8-2.4,2.4c0-0.4,0-0.8,0-1.2c0,3.9,0,7.8,0,11.8c0-0.4,0-0.8,0-1.2
				c0.8,3,3.5,2.4,6,2.4C-7.9,7-3.9,7,0,7c3.8,0,7.6,0,11.4,0c2.6,0,5.5,0.7,6.3-2.4c0,0.4,0,0.8,0,1.2c0-3.9,0-7.8,0-11.8
				c0,0.4,0,0.8,0,1.2C17-7.6,14.5-7,12.1-7C8.6-7,5-7,1.5-7C-4.1-7-9.8-7-15.4-7c0,0,0-2.5,0-2.5c7.9,0,15.8,0,23.8,0
				c2.1,0,6.9-0.9,8.6,0.8C18.7-7.1,17.8-2,17.8,0c0,1.9,0.9,6.4-0.3,8.3c-1.4,2.1-6.6,1.2-8.6,1.2c-5,0-10,0-15,0
				c-2.7,0-6.5,0.7-9.1,0c-3.6-0.9-2.4-6.2-2.4-9c0-3-1.3-9,2.4-10C-15.6-9.5-15.1-7.1-15.4-7z"/>
		</g>
		<path fill="none" stroke="#2D2C82" stroke-width="2" stroke-miterlimit="1" d="M19,5.9c0,2-1.6,3.6-3.6,3.6h-30.7
			c-2,0-3.6-1.6-3.6-3.6V-5.9c0-2,1.6-3.6,3.6-3.6h30.7c2,0,3.6,1.6,3.6,3.6V5.9z"/>
		<g opacity="0.58">
			<path fill="#150E39" d="M19,6.1c-0.7,4.4-4.9,3.6-8.2,3.6c-5,0-10.1,0-15.1,0c-3.5,0-7.2,0.4-10.6,0c-2.9-0.3-3.7-1.9-4-4.4
				c-0.3-3.4-0.5-7.8,0-11.2c0.4-3,2.3-3.7,5-3.8c9-0.3,18,0,27,0c2.9,0,5.5,0.2,6,3.8c0.5,3.8,0,8,0,11.8c0,0.2,0,0.2,0,0
				c0-3.5,0.2-7.1,0-10.6c-0.2-3.5-2-4.5-5.2-4.6c-8-0.2-16.1,0-24.1,0c-2.2,0-5.8-0.6-7.5,1.1C-20.2-5.8-19,0.6-19,3.7
				c0,3.3,1,5.4,4.6,5.6c3.5,0.2,7,0,10.5,0c4.9,0,9.8,0,14.6,0c3.3,0,7.5,0.8,8.2-3.6C18.9,5.8,19,6,19,6.1z"/>
		</g>
	</g>
</symbol>
<symbol  id="Right_Aligned_Right_Angle_2" viewBox="-80.7 -88.3 98.8 158.3">
	
		<use xlink:href="#Illuminated_Blue_Rounded_Org"  width="39.9" height="21" x="-20" y="-10.5" transform="matrix(1 0 0 1 -60.6846 -7.1553)" overflow="visible"/>
	
		<use xlink:href="#Illuminated_Blue_Rounded_Org"  width="39.9" height="21" x="-20" y="-10.5" transform="matrix(1 0 0 1 -1.7935 -7.1553)" overflow="visible"/>
	
		<use xlink:href="#Illuminated_Blue_Rounded_Org"  width="39.9" height="21" x="-20" y="-10.5" transform="matrix(1 0 0 1 -1.7935 29.3818)" overflow="visible"/>
	
		<use xlink:href="#Illuminated_Blue_Rounded_Org"  width="39.9" height="21" x="-20" y="-10.5" transform="matrix(1 0 0 1 -1.7935 59.5203)" overflow="visible"/>
	
		<use xlink:href="#Illuminated_Blue_Rounded_Org"  width="39.9" height="21" x="-20" y="-10.5" transform="matrix(1 0 0 1 -1.7935 -44.0752)" overflow="visible"/>
	
		<use xlink:href="#Illuminated_Blue_Rounded_Org"  width="39.9" height="21" x="-20" y="-10.5" transform="matrix(1 0 0 1 -1.7935 -77.8348)" overflow="visible"/>
	
		<line fill="none" stroke="#00B0D8" stroke-linecap="round" stroke-linejoin="round" stroke-miterlimit="10" stroke-dasharray="2,2" x1="-41.2" y1="-7.6" x2="-20.9" y2="-7.6"/>
	
		<line fill="none" stroke="#00B0D8" stroke-linecap="round" stroke-linejoin="round" stroke-miterlimit="10" stroke-dasharray="2,2" x1="-34" y1="-7.4" x2="-34" y2="-78.5"/>
	
		<line fill="none" stroke="#00B0D8" stroke-linecap="round" stroke-linejoin="round" stroke-miterlimit="10" stroke-dasharray="2,2" x1="-34.2" y1="-78.5" x2="-21.2" y2="-78.5"/>
	
		<line fill="none" stroke="#00B0D8" stroke-linecap="round" stroke-linejoin="round" stroke-miterlimit="10" stroke-dasharray="2,2" x1="-34.2" y1="-45" x2="-20.9" y2="-45"/>
	
		<line fill="none" stroke="#00B0D8" stroke-linecap="round" stroke-linejoin="round" stroke-miterlimit="10" stroke-dasharray="2,2" x1="-34" y1="-7.4" x2="-34" y2="28.7"/>
	
		<line fill="none" stroke="#00B0D8" stroke-linecap="round" stroke-linejoin="round" stroke-miterlimit="10" stroke-dasharray="2,2" x1="-34" y1="29.2" x2="-21.2" y2="29.2"/>
	
		<line fill="none" stroke="#00B0D8" stroke-linecap="round" stroke-linejoin="round" stroke-miterlimit="10" stroke-dasharray="2,2" x1="-33.9" y1="28.6" x2="-33.9" y2="59.4"/>
	
		<line fill="none" stroke="#00B0D8" stroke-linecap="round" stroke-linejoin="round" stroke-miterlimit="10" stroke-dasharray="2,2" x1="-33" y1="59.5" x2="-20.2" y2="59.5"/>
</symbol>
<g>
	
		<use xlink:href="#Right_Aligned_Right_Angle_2"  width="98.8" height="158.3" id="XMLID_1_" x="-80.7" y="-88.3" transform="matrix(0 1.0398 1.0723 0 134.8194 114.2001)" overflow="visible"/>
	<text transform="matrix(1 0 0 1 98.1572 12.4602)"><tspan x="0" y="0" font-family="'MyriadPro-Regular'" font-size="12">Templates:</tspan><tspan x="-44.6" y="14.4" font-family="'MyriadPro-Regular'" font-size="12">from one, there can be many</tspan></text>
</g>
</svg>
